<svg width="1200" height="700" viewBox="0 0 1200 700" fill="none" xmlns="http://www.w3.org/2000/svg">
  <rect width="1200" height="700" rx="28" fill="#0B1020"/>
  <rect x="70" y="72" width="1060" height="556" rx="24" fill="#121A2F" stroke="#2DD4BF" stroke-opacity="0.35"/>
  <text x="96" y="124" fill="#EDF2FF" font-family="Arial, sans-serif" font-size="34" font-weight="700">GreenCarry Architecture</text>
  <text x="96" y="160" fill="#9AA8C7" font-family="Arial, sans-serif" font-size="18">주문, 결제, 포인트, 탄소 절감량, SSE 알림을 잇는 서비스 흐름</text>
  <g font-family="Arial, sans-serif" font-size="22" font-weight="700">
    <rect x="88" y="240" width="190" height="104" rx="18" fill="#18213A" stroke="#2DD4BF"/>
    <text x="142" y="284" fill="#EDF2FF">React</text>
    <text x="125" y="316" fill="#9AA8C7" font-size="16" font-weight="400">Role-based UI</text>
    <rect x="373" y="240" width="190" height="104" rx="18" fill="#18213A" stroke="#2DD4BF"/>
    <text x="426" y="284" fill="#EDF2FF">Axios</text>
    <text x="414" y="316" fill="#9AA8C7" font-size="16" font-weight="400">JWT Retry</text>
    <rect x="658" y="240" width="190" height="104" rx="18" fill="#18213A" stroke="#4F8CFF"/>
    <text x="690" y="284" fill="#EDF2FF">Spring Boot</text>
    <text x="700" y="316" fill="#9AA8C7" font-size="16" font-weight="400">Service Layer</text>
    <rect x="943" y="240" width="190" height="104" rx="18" fill="#18213A" stroke="#4F8CFF"/>
    <text x="994" y="284" fill="#EDF2FF">Oracle</text>
    <text x="985" y="316" fill="#9AA8C7" font-size="16" font-weight="400">MyBatis SQL</text>
    <rect x="245" y="465" width="220" height="104" rx="18" fill="#18213A" stroke="#2DD4BF"/>
    <text x="287" y="510" fill="#EDF2FF">Zustand Cart</text>
    <text x="290" y="542" fill="#9AA8C7" font-size="16" font-weight="400">Persist · Checkout</text>
    <rect x="735" y="465" width="220" height="104" rx="18" fill="#18213A" stroke="#2DD4BF"/>
    <text x="777" y="510" fill="#EDF2FF">SSE Notify</text>
    <text x="776" y="542" fill="#9AA8C7" font-size="16" font-weight="400">Order · Review · CS</text>
  </g>
  <path d="M288 292H363" stroke="#2DD4BF" stroke-width="5" stroke-linecap="round"/>
  <path d="M573 292H648" stroke="#2DD4BF" stroke-width="5" stroke-linecap="round"/>
  <path d="M858 292H933" stroke="#2DD4BF" stroke-width="5" stroke-linecap="round"/>
  <path d="M468 352L365 456" stroke="#2DD4BF" stroke-width="5" stroke-linecap="round"/>
  <path d="M754 352L842 456" stroke="#2DD4BF" stroke-width="5" stroke-linecap="round"/>
</svg>
