<svg width="1200" height="700" viewBox="0 0 1200 700" fill="none" xmlns="http://www.w3.org/2000/svg">
  <rect width="1200" height="700" rx="28" fill="#0B1020"/>
  <rect x="70" y="72" width="1060" height="556" rx="24" fill="#121A2F" stroke="#2DD4BF" stroke-opacity="0.35"/>
  <text x="96" y="124" fill="#EDF2FF" font-family="Arial, sans-serif" font-size="34" font-weight="700">WeMove Architecture</text>
  <text x="96" y="160" fill="#9AA8C7" font-family="Arial, sans-serif" font-size="18">운동 모임 탐색, 참가 신청, 알림/채팅, 관리자 운영 흐름</text>
  <g font-family="Arial, sans-serif" font-size="22" font-weight="700">
    <rect x="100" y="250" width="210" height="110" rx="18" fill="#18213A" stroke="#4F8CFF"/>
    <text x="150" y="296" fill="#EDF2FF">React SPA</text>
    <text x="135" y="330" fill="#9AA8C7" font-size="16" font-weight="400">Vite · Router · Axios</text>
    <rect x="500" y="250" width="210" height="110" rx="18" fill="#18213A" stroke="#4F8CFF"/>
    <text x="532" y="296" fill="#EDF2FF">Spring Boot</text>
    <text x="540" y="330" fill="#9AA8C7" font-size="16" font-weight="400">REST API · JWT</text>
    <rect x="900" y="250" width="210" height="110" rx="18" fill="#18213A" stroke="#4F8CFF"/>
    <text x="952" y="296" fill="#EDF2FF">MySQL</text>
    <text x="932" y="330" fill="#9AA8C7" font-size="16" font-weight="400">Meetings · Users</text>
    <rect x="500" y="455" width="210" height="110" rx="18" fill="#18213A" stroke="#2DD4BF"/>
    <text x="542" y="502" fill="#EDF2FF">Realtime</text>
    <text x="532" y="536" fill="#9AA8C7" font-size="16" font-weight="400">Notifications · Chat</text>
  </g>
  <path d="M320 305H490" stroke="#2DD4BF" stroke-width="5" stroke-linecap="round"/>
  <path d="M710 305H890" stroke="#2DD4BF" stroke-width="5" stroke-linecap="round"/>
  <path d="M605 370V445" stroke="#2DD4BF" stroke-width="5" stroke-linecap="round"/>
  <path d="M476 292L496 305L476 318" stroke="#2DD4BF" stroke-width="5" stroke-linecap="round" stroke-linejoin="round"/>
  <path d="M876 292L896 305L876 318" stroke="#2DD4BF" stroke-width="5" stroke-linecap="round" stroke-linejoin="round"/>
  <path d="M592 430L605 450L618 430" stroke="#2DD4BF" stroke-width="5" stroke-linecap="round" stroke-linejoin="round"/>
</svg>
